<?xml version="1.0" encoding="UTF-8" standalone="no"?>
<svg
   xmlns:dc="http://purl.org/dc/elements/1.1/"
   xmlns:cc="http://creativecommons.org/ns#"
   xmlns:rdf="http://www.w3.org/1999/02/22-rdf-syntax-ns#"
   xmlns:svg="http://www.w3.org/2000/svg"
   xmlns="http://www.w3.org/2000/svg"
   xmlns:sodipodi="http://sodipodi.sourceforge.net/DTD/sodipodi-0.dtd"
   xmlns:inkscape="http://www.inkscape.org/namespaces/inkscape"
   version="1.1"
   style="display:block"
   id="svg_mashing"
   viewBox="0 0 150 150"
   xml:space="preserve"
   sodipodi:docname="mashing.svg"
   width="150"
   height="150"
   inkscape:version="0.92.4 (5da689c313, 2019-01-14)"><metadata
   id="metadata35"><rdf:RDF><cc:Work
       rdf:about=""><dc:format>image/svg+xml</dc:format><dc:type
         rdf:resource="http://purl.org/dc/dcmitype/StillImage" /><dc:title></dc:title></cc:Work></rdf:RDF></metadata><defs
   id="defs33" /><sodipodi:namedview
   pagecolor="#ffffff"
   bordercolor="#666666"
   borderopacity="1"
   objecttolerance="10"
   gridtolerance="10"
   guidetolerance="10"
   inkscape:pageopacity="0"
   inkscape:pageshadow="2"
   inkscape:window-width="1920"
   inkscape:window-height="1017"
   id="namedview31"
   showgrid="false"
   fit-margin-top="0"
   fit-margin-left="0"
   fit-margin-right="0"
   fit-margin-bottom="0"
   inkscape:zoom="1.475"
   inkscape:cx="77.055932"
   inkscape:cy="74.98305"
   inkscape:window-x="1912"
   inkscape:window-y="-8"
   inkscape:window-maximized="1"
   inkscape:current-layer="svg_mashing" />
    <g
   id="g3"
   transform="translate(-4.3,-146.00001)">
        <path
   id="svg_mashing_start"
   stroke-miterlimit="10"
   d="m 52.4,148.7 v 8 m 3.6,-5.5 c 1.8,1.2 2.9,3.2 2.9,5.4 0,3.6 -2.9,6.5 -6.5,6.5 -3.6,0 -6.5,-2.9 -6.5,-6.5 0,-2.2 1.1,-4.2 2.9,-5.4"
   inkscape:connector-curvature="0"
   style="fill:none;stroke:#000000;stroke-miterlimit:10" />
    </g>
    <g
   id="g11"
   transform="translate(-4.3,-146.00001)">
        <path
   id="svg_mashing_color_t1"
   stroke-miterlimit="10"
   d="m 13,289.5 c 0,2.2 1.8,4 4,4 h 71 c 2.2,0 4,-1.8 4,-4 v -75 h 4 v -4 h -4 v -25 H 13 Z"
   inkscape:connector-curvature="0"
   style="fill:#ffffff;stroke:#000000;stroke-miterlimit:10" />
        <path
   stroke-miterlimit="10"
   d="M 148.8,224.5 H 113 c 0,-3.3 -2.7,-5.9 -6,-5.9 -1.7,0 -3.2,0.7 -4.3,1.9 l -4.9,-4.9 m 4.9,4.8 c -1,1.1 -1.7,2.5 -1.7,4.1 0,3.3 2.7,6 6,6 3.3,0 6,-2.7 6,-6 0,0 0,0 0,-0.1"
   id="path6"
   inkscape:connector-curvature="0"
   style="fill:none;stroke:#000000;stroke-miterlimit:10" />
        <text
   transform="translate(103.25,228.1173)"
   font-size="10"
   id="text8"
   style="font-size:10px">t1</text>

        <text
   id="svg_mashing_t1"
   transform="translate(116,223.375)"
   font-size="12"
   style="font-size:12px" />

    </g>
    <g
   id="g19"
   transform="translate(-4.3,-146.00001)">
        <path
   id="svg_mashing_color_t2"
   stroke-miterlimit="10"
   d="M 17.9,273.8 H 8.8 c -0.6,0 -1,-0.4 -1,-1 v -98 c 0,-0.6 0.4,-1 1,-1 h 56.5 c 0.6,0 1,0.4 1,1 v 7.5 h 3 v -2.4 h 3.2 v -3 h -3.2 v -3.1 -1 c 0,-1.1 -0.9,-2 -2,-2 h -1 -58.5 -1 c -1.1,0 -2,0.9 -2,2 v 1 100 1 c 0,1.1 0.9,2 2,2 h 1 10.2 v -3 z"
   inkscape:connector-curvature="0"
   style="fill:#ffffff;stroke:#000000;stroke-miterlimit:10" />
        <path
   stroke-miterlimit="10"
   d="m 75.3,176.3 4.9,-4.9 c 1.1,1.1 2.6,1.9 4.3,1.9 3.3,0 6,-2.7 6,-5.9 h 35.7 m -35.6,-0.1 c 0,0 0,0 0,0 0,-3.4 -2.7,-6.1 -6,-6.1 -3.3,0 -6,2.7 -6,6 0,1.6 0.6,3.1 1.7,4.1"
   id="path14"
   inkscape:connector-curvature="0"
   style="fill:none;stroke:#000000;stroke-miterlimit:10" />
        <text
   transform="translate(80.4167,170.75)"
   font-size="10"
   id="text16"
   style="font-size:10px">t2</text>

        <text
   id="svg_mashing_t2"
   transform="translate(96,166.25)"
   font-size="12"
   style="font-size:12px" />

    </g>
    <g
   id="g28"
   transform="translate(-4.3,-146.00001)">
        <path
   id="svg_mashing_white_ten"
   stroke-miterlimit="10"
   d="m 65,268 h 20 c 1.1,0 2,0.9 2,2 v 0 c 0,1.1 -0.9,2 -2,2 H 65 c -1.1,0 -2,-0.9 -2,-2 v 0 c 0,-1.1 0.9,-2 2,-2 z m 0,-9 h 20 c 1.1,0 2,0.9 2,2 v 0 c 0,1.1 -0.9,2 -2,2 H 65 c -1.1,0 -2,-0.9 -2,-2 v 0 c 0,-1.1 0.9,-2 2,-2 z m 0,18 h 33 c 1.1,0 2,0.9 2,2 v 0 c 0,1.1 -0.9,2 -2,2 H 65 c -1.1,0 -2,-0.9 -2,-2 v 0 c 0,-1.1 0.9,-2 2,-2 z"
   inkscape:connector-curvature="0"
   style="fill:#ffffff;stroke:#000000;stroke-miterlimit:10" />
        <path
   id="svg_mashing_color_ten"
   stroke-miterlimit="10"
   d="m 65,268 h 20 c 1.1,0 2,0.9 2,2 v 0 c 0,1.1 -0.9,2 -2,2 H 65 c -1.1,0 -2,-0.9 -2,-2 v 0 c 0,-1.1 0.9,-2 2,-2 z m 0,-9 h 20 c 1.1,0 2,0.9 2,2 v 0 c 0,1.1 -0.9,2 -2,2 H 65 c -1.1,0 -2,-0.9 -2,-2 v 0 c 0,-1.1 0.9,-2 2,-2 z m 0,18 h 33 c 1.1,0 2,0.9 2,2 v 0 c 0,1.1 -0.9,2 -2,2 H 65 c -1.1,0 -2,-0.9 -2,-2 v 0 c 0,-1.1 0.9,-2 2,-2 z"
   inkscape:connector-curvature="0"
   style="fill:#ffffff;stroke:#000000;stroke-miterlimit:10" />
        <path
   stroke-miterlimit="10"
   d="m 153.1,289.5 h -35.7 c 0,-3.3 -2.7,-5.9 -6,-5.9 -1.7,0 -3.2,0.7 -4.3,1.9 l -4.9,-4.9 m 4.8,4.8 c -1,1.1 -1.7,2.5 -1.7,4.1 0,3.3 2.7,6 6,6 3.3,0 6,-2.7 6,-6 0,0 0,0 0,-0.1"
   id="path23"
   inkscape:connector-curvature="0"
   style="fill:none;stroke:#000000;stroke-miterlimit:10" />
        <text
   transform="translate(107.5833,293.1173)"
   display="none"
   font-size="10"
   id="text25"
   style="font-size:10px;display:none;enable-background:new">t0</text>

        <text
   id="svg_mashing_ten_t"
   transform="translate(124,286.7083)"
   font-size="12"
   style="font-size:12px" />

    </g>
</svg>